<svg width="300" height="300" viewBox="0 0 300 300" fill="none" xmlns="http://www.w3.org/2000/svg">
<path d="M233.334 250.5H233.834V250V141.874L249.501 126.207V250C249.501 254.288 247.797 258.4 244.766 261.432C241.734 264.464 237.622 266.167 233.334 266.167H50.0007C45.713 266.167 41.6009 264.464 38.5691 261.432C35.5373 258.4 33.834 254.288 33.834 250V66.6669C33.834 62.3792 35.5373 58.2672 38.5691 55.2354C41.6009 52.2035 45.713 50.5002 50.0007 50.5002H175.627L159.96 66.1669H50.0007H49.5007V66.6669V250V250.5H50.0007H233.334Z" fill="black" stroke="black"/>
<path d="M279.416 48.6666L251.333 20.5833C250.087 19.3335 248.606 18.342 246.976 17.6654C245.346 16.9889 243.598 16.6406 241.833 16.6406C240.068 16.6406 238.32 16.9889 236.69 17.6654C235.06 18.342 233.579 19.3335 232.333 20.5833L118.083 135.5L108.833 175.583C108.439 177.526 108.48 179.532 108.954 181.458C109.428 183.383 110.323 185.179 111.574 186.717C112.825 188.255 114.402 189.496 116.19 190.352C117.978 191.208 119.934 191.657 121.916 191.667C122.941 191.779 123.975 191.779 125 191.667L165.416 182.75L279.416 67.6666C280.666 66.4203 281.658 64.9396 282.334 63.3094C283.011 61.6793 283.359 59.9316 283.359 58.1666C283.359 56.4016 283.011 54.654 282.334 53.0238C281.658 51.3936 280.666 49.9129 279.416 48.6666V48.6666ZM156.75 167.333L126.25 174.083L133.333 143.833L219.333 57.2499L242.833 80.7499L156.75 167.333ZM252.25 71.3333L228.75 47.8333L241.666 34.6666L265.333 58.3333L252.25 71.3333Z" fill="black"/>
</svg>
